<svg width="26" height="26" viewBox="0 0 26 26" fill="none" xmlns="http://www.w3.org/2000/svg">
<g id="inst" clip-path="url(#clip0_675_88)">
<path id="Vector" d="M12.9976 26C5.82998 26 0 20.17 0 12.9976C0 5.82519 5.82998 0 12.9976 0C20.1652 0 25.9952 5.82998 25.9952 12.9976C25.9952 20.1652 20.1652 25.9952 12.9976 25.9952V26ZM17.3797 7.72377C16.8475 7.72377 16.416 8.15526 16.416 8.68744C16.416 9.21962 16.8475 9.65112 17.3797 9.65112C17.9119 9.65112 18.3434 9.21962 18.3434 8.68744C18.3434 8.15526 17.9119 7.72377 17.3797 7.72377ZM13.1031 8.95593C10.8737 8.95593 9.06141 10.7682 9.06141 12.9976C9.06141 15.227 10.8737 17.0393 13.1031 17.0393C15.3325 17.0393 17.1448 15.227 17.1448 12.9976C17.1448 10.7682 15.3325 8.95593 13.1031 8.95593ZM13.1031 15.5866C11.6743 15.5866 10.5141 14.4263 10.5141 12.9976C10.5141 11.5689 11.6743 10.4086 13.1031 10.4086C14.5318 10.4086 15.6921 11.5689 15.6921 12.9976C15.6921 14.4263 14.5318 15.5866 13.1031 15.5866ZM21.2583 9.64153C21.2583 6.91831 19.0529 4.71289 16.3297 4.71289H9.82371C7.1005 4.71289 4.89508 6.91831 4.89508 9.64153V16.1475C4.89508 18.8707 7.1005 21.0762 9.82371 21.0762H16.3297C19.0529 21.0762 21.2583 18.8707 21.2583 16.1475V9.64153ZM19.7146 16.1475C19.7146 18.0173 18.1995 19.5324 16.3297 19.5324H9.82371C7.9539 19.5324 6.43887 18.0173 6.43887 16.1475V9.64153C6.43887 7.77171 7.9539 6.25668 9.82371 6.25668H16.3297C18.1995 6.25668 19.7146 7.77171 19.7146 9.64153V16.1475Z" fill="black"/>
</g>
<defs>
<clipPath id="clip0_675_88">
<rect width="26" height="26" fill="white"/>
</clipPath>
</defs>
</svg>
