<svg width="54" height="54" viewBox="0 0 54 54" fill="none" xmlns="http://www.w3.org/2000/svg">
<g clip-path="url(#clip0_193_20238)">
<path d="M26.9951 54C12.1077 54 0 41.8901 0 27C0 12.1099 12.1077 0 26.9951 0C41.8824 0 53.9901 12.1099 53.9901 27C53.9901 41.8901 41.8824 54 26.9951 54Z" fill="black"/>
<path fill-rule="evenodd" clip-rule="evenodd" d="M28.2711 9.42676C19.2794 9.42676 11.9692 16.7369 11.9692 25.7286C11.9692 28.8941 12.8694 31.9309 14.5708 34.5621L12.0978 40.0126C11.8703 40.5171 11.9495 41.1007 12.3155 41.526C12.5924 41.8525 12.9881 42.0305 13.3937 42.0305C13.5223 42.0305 13.641 42.0107 13.7696 41.9811L20.595 40.1115C22.9493 41.3678 25.5904 42.0305 28.2711 42.0305C37.2629 42.0305 44.573 34.7204 44.573 25.7286C44.573 16.7369 37.2629 9.42676 28.2711 9.42676ZM28.2711 39.1817C25.8872 39.1817 23.5527 38.5486 21.4952 37.3517C21.2775 37.2231 21.0302 37.1538 20.773 37.1538C20.6445 37.1538 20.5159 37.1736 20.3972 37.2033L15.9359 38.4299L17.4889 35.0073C17.6967 34.5423 17.6472 33.9983 17.3504 33.5828C15.6886 31.278 14.8082 28.5676 14.8082 25.7188C14.8082 18.2998 20.8423 12.2657 28.2612 12.2657C35.6802 12.2657 41.7142 18.2998 41.7142 25.7188C41.7142 33.1377 35.6802 39.1718 28.2612 39.1718L28.2711 39.1817Z" fill="#F6F3ED"/>
<path fill-rule="evenodd" clip-rule="evenodd" d="M34.5425 28.1624C33.86 27.7568 32.9697 27.3018 32.1685 27.6282C31.5552 27.8854 31.1595 28.8449 30.7539 29.3395C30.5462 29.5967 30.3088 29.6363 29.9923 29.5077C27.6775 28.5877 25.897 27.0347 24.6209 24.9079C24.4033 24.5815 24.4429 24.3144 24.7001 24.0078C25.0859 23.5527 25.5706 23.0384 25.6794 22.4251C25.7882 21.8118 25.5013 21.0995 25.2441 20.5555C24.9177 19.8631 24.5616 18.864 23.8593 18.4683C23.2163 18.1023 22.3755 18.31 21.8017 18.7749C20.8126 19.5762 20.3377 20.8424 20.3575 22.0887C20.3575 22.4448 20.407 22.801 20.4861 23.1373C20.684 23.9583 21.0697 24.7299 21.4951 25.4619C21.8215 26.0158 22.1677 26.55 22.5436 27.0644C23.7801 28.746 25.3233 30.21 27.1038 31.2981C27.9941 31.8422 28.9536 32.3269 29.9527 32.6533C31.0705 33.0193 32.0597 33.4051 33.2665 33.1776C34.5228 32.9402 35.7691 32.1587 36.2736 30.942C36.422 30.5859 36.4913 30.1803 36.4121 29.8044C36.244 29.023 35.1756 28.5482 34.5425 28.1723V28.1624Z" fill="#F6F3ED"/>
</g>
<defs>
<clipPath id="clip0_193_20238">
<rect width="54" height="54" fill="white"/>
</clipPath>
</defs>
</svg>
