<svg width="55" height="55" viewBox="0 0 55 55" fill="none" xmlns="http://www.w3.org/2000/svg">
<g clip-path="url(#clip0_15_15)">
<path d="M24.9196 22.83C24.5996 22.65 24.3096 22.88 24.3096 23.24V31.4C24.3096 31.76 24.5896 31.99 24.9096 31.82L32.1596 27.84C32.4896 27.66 32.5396 27.2 32.2196 27.01L24.9196 22.82V22.83Z" fill="black"/>
<path d="M27.29 0C12.24 0 0 12.24 0 27.29C0 42.34 12.24 54.58 27.29 54.58C42.34 54.58 54.58 42.34 54.58 27.29C54.58 12.24 42.34 0 27.29 0ZM43.63 31.67C43.63 35.54 40.49 38.68 36.62 38.68H18.45C14.58 38.68 11.44 35.54 11.44 31.67V23.15C11.44 19.28 14.58 16.14 18.45 16.14H36.63C40.5 16.14 43.64 19.28 43.64 23.15V31.67H43.63Z" fill="black"/>
</g>
<defs>
<clipPath id="clip0_15_15">
<rect width="54.59" height="54.59" fill="white"/>
</clipPath>
</defs>
</svg>
