<svg width="55" height="55" viewBox="0 0 55 55" fill="none" xmlns="http://www.w3.org/2000/svg">
<g id="Property 1=Variant2" clip-path="url(#clip0_15_12)">
<path id="Vector" d="M27.11 54.46C12.16 54.46 0 42.3 0 27.34C0 12.38 12.16 0.22998 27.11 0.22998C42.06 0.22998 54.22 12.39 54.22 27.34C54.22 42.29 42.06 54.45 27.11 54.45V54.46ZM36.25 16.34C35.14 16.34 34.24 17.24 34.24 18.35C34.24 19.46 35.14 20.36 36.25 20.36C37.36 20.36 38.26 19.46 38.26 18.35C38.26 17.24 37.36 16.34 36.25 16.34ZM27.33 18.91C22.68 18.91 18.9 22.69 18.9 27.34C18.9 31.99 22.68 35.77 27.33 35.77C31.98 35.77 35.76 31.99 35.76 27.34C35.76 22.69 31.98 18.91 27.33 18.91ZM27.33 32.74C24.35 32.74 21.93 30.32 21.93 27.34C21.93 24.36 24.35 21.94 27.33 21.94C30.31 21.94 32.73 24.36 32.73 27.34C32.73 30.32 30.31 32.74 27.33 32.74ZM44.34 20.34C44.34 14.66 39.74 10.06 34.06 10.06H20.49C14.81 10.06 10.21 14.66 10.21 20.34V33.91C10.21 39.59 14.81 44.19 20.49 44.19H34.06C39.74 44.19 44.34 39.59 44.34 33.91V20.34ZM41.12 33.91C41.12 37.81 37.96 40.97 34.06 40.97H20.49C16.59 40.97 13.43 37.81 13.43 33.91V20.34C13.43 16.44 16.59 13.28 20.49 13.28H34.06C37.96 13.28 41.12 16.44 41.12 20.34V33.91Z" fill="url(#paint0_linear_15_12)"/>
</g>
<defs>
<linearGradient id="paint0_linear_15_12" x1="12" y1="8.93646e-07" x2="42" y2="48.5" gradientUnits="userSpaceOnUse">
<stop stop-color="#EE8038"/>
<stop offset="1" stop-color="#1F446F"/>
</linearGradient>
<clipPath id="clip0_15_12">
<rect width="54.23" height="54.23" fill="white" transform="translate(0 0.22998)"/>
</clipPath>
</defs>
</svg>
